<?xml version="1.0" standalone="no"?><!DOCTYPE svg PUBLIC "-//W3C//DTD SVG 1.1//EN" "http://www.w3.org/Graphics/SVG/1.1/DTD/svg11.dtd"><svg t="1609824760748" class="icon" viewBox="0 0 1024 1024" version="1.1" xmlns="http://www.w3.org/2000/svg" p-id="935" xmlns:xlink="http://www.w3.org/1999/xlink" width="200" height="200"><defs><style type="text/css"></style></defs><path d="M633.51399243 350.99396003h125.65651489V701.17519275h109.08642503V173.69399837c0-6.07569962-4.97102697-11.04672658-11.04672659-11.0467266h-66.55652768c-5.10911105 0-9.66588576 3.59018613-10.63247433 8.69929718-3.59018613 16.70817396-9.52780169 30.79275037-17.81284661 42.66798143-9.94205392 13.9464923-21.95536909 25.13130297-36.31611365 33.69251609-14.22266047 8.5612131-30.3784981 14.49882864-48.32942881 17.81284662-14.36074457 2.62359757-28.99765728 4.14252247-44.18690633 4.28060656-6.07569962 0.13808409-10.90864251 4.97102697-10.9086425 11.04672657v59.09998723c0 6.07569962 4.97102697 11.04672658 11.04672658 11.04672658zM1007.72185547 774.35975638H587.94624527c-6.07569962 0-11.04672658 4.97102697-11.04672659 11.04672659v66.2803595c0 6.07569962 4.97102697 11.04672658 11.04672659 11.04672658h419.7756102c6.07569962 0 11.04672658-4.97102697 11.0467266-11.04672658v-66.2803595c0-6.07569962-4.97102697-11.04672658-11.0467266-11.04672659zM417.96473995 236.79842397c-22.23153725-26.23597565-47.5009243-44.73924267-76.22241343-55.78596925-29.41190953-11.32289475-60.8950803-16.98434213-94.4495123-16.98434213-33.00209567 0-64.0710142 5.66144737-93.48292371 16.98434213-28.72148912 11.04672658-53.8527921 29.54999362-75.67007711 55.64788516-21.95536909 26.37405971-39.63013162 61.7235848-52.88620353 106.32474337-13.2560719 44.87732675-20.02219194 100.80138009-20.02219194 167.77216 0 68.90395707 6.76612003 126.20885123 20.02219194 171.77659838 13.2560719 45.291579 30.93083443 81.0553563 52.88620353 107.29133197 21.817285 26.09789155 46.94858799 44.60115858 75.67007711 55.64788516 29.41190953 11.32289475 60.48082805 16.98434213 93.48292371 16.98434213 33.69251609 0 65.17568685-5.66144737 94.4495123-16.98434213 28.72148912-11.04672658 54.12896027-29.54999362 76.22241343-55.78596925 22.23153725-26.23597565 40.04438386-61.99975295 53.30045576-107.29133194 13.2560719-45.56774717 20.02219194-102.87264132 20.02219194-171.77659839 0-66.83269584-6.76612003-122.75674917-20.02219194-167.77216-13.11798782-44.32499042-30.93083443-79.67451549-53.30045576-106.04857521z m-40.73480428 347.55763516c-1.38084082 29.54999362-5.79953147 57.99531457-13.11798782 85.47404695-7.59462453 28.58340503-20.02219194 53.1623717-37.28270222 73.73689995-18.7794352 22.50770542-45.84391532 33.554432-79.53643141 33.554432-33.14017975 0-59.65232355-11.18481067-78.29367467-33.6925161-16.84625804-20.43644418-29.13574137-45.01541083-36.73036589-73.59881585-7.31845635-27.47873238-11.737147-56.06213742-13.11798781-85.47404695-1.38084082-28.72148912-2.07126124-53.1623717-2.07126125-73.46073178 0-12.15139925 0.13808409-26.78831197 0.55233634-43.91073818 0.27616816-17.53667845 1.51892491-35.62569324 3.59018614-54.12896026 2.07126124-18.7794352 5.5233633-37.42078631 10.49439025-55.92405334 5.10911105-19.05560336 12.15139925-36.31611363 21.26494869-51.64344677 9.52780169-16.01775355 21.817285-29.13574137 36.86844997-39.07779531 15.74158539-10.49439025 34.93527282-15.6035013 57.30489414-15.6035013 22.23153725 0 41.56330877 5.10911105 57.58106233 15.46541723 15.32733314 9.94205392 28.0310687 22.92195766 37.83503856 38.93971121 9.52780169 15.46541722 16.70817396 32.86401158 21.54111683 52.05769902 4.55677472 18.22709886 8.00887677 36.7303659 10.35630618 55.371717 2.48551348 18.64135111 3.86635431 36.7303659 4.14252247 54.40512844 0.27616816 17.12242621 0.55233633 31.75933893 0.55233632 43.91073816 0.13808409 20.43644418-0.55233633 44.87732675-1.93317715 73.59881588z" p-id="936"></path></svg>