<?xml version="1.0" standalone="no"?><!DOCTYPE svg PUBLIC "-//W3C//DTD SVG 1.1//EN" "http://www.w3.org/Graphics/SVG/1.1/DTD/svg11.dtd"><svg t="1609825886274" class="icon" viewBox="0 0 1024 1024" version="1.1" xmlns="http://www.w3.org/2000/svg" p-id="1064" xmlns:xlink="http://www.w3.org/1999/xlink" width="200" height="200"><defs><style type="text/css"></style></defs><path d="M939.76577479 98.46219093l-48.94347152 0 0-14.54088078c0-43.58887765-35.49819221-79.22678557-78.87516784-79.22678556l-1.1654599 0c-43.38279765 0-78.87516785 35.63674283-78.87516786 79.22678556l0 14.54088078L295.69754453 98.46219093l0-14.54088078c0-43.58887765-35.49353415-79.22678557-78.87516785-79.22678556l-1.20038856 0c-43.38046975 0-78.8740039 35.63674283-78.87400392 79.22678556l0 14.54088078-48.83868444 0c-43.38046975 0-78.87516785 35.67050752-78.87516785 79.20000683l0 757.42050305c0 43.58771372 35.49353415 79.22678557 78.87516785 79.22678556l851.85647503 0c43.38046975 0 78.8740039-35.63907186 78.87400392-79.22678556l0-757.42050305C1018.63977871 134.13269845 983.14624454 98.46219093 939.76577479 98.46219093L939.76577479 98.46219093zM763.45541064 83.92130901c0-26.19663815 21.19948401-47.53350997 47.32510092-47.53350996l1.16545992 0c26.09068829 0 47.32393699 21.33687068 47.323937 47.53350996L859.26990848 224.84292494c0 26.19663815-21.23324871 47.53467393-47.323937 47.53467396l-1.16545992 0c-26.12561693 0-47.32510094-21.33803577-47.32510094-47.53467396L763.45541064 83.92130901 763.45541064 83.92130901zM168.29805225 83.92130901c0-26.19663815 21.19948401-47.53350997 47.33092293-47.53350996l1.19340263 0c26.05925145 0 47.32510094 21.33687068 47.32510091 47.53350996L264.14747763 224.84292494c0 26.19663815-21.26701341 47.53467393-47.32510097 47.53467396l-1.19340258 0c-26.13143779 0-47.33092295-21.33803577-47.33092296-47.53467396L168.29805225 83.92130901 168.29805225 83.92130901zM939.76577479 950.96368467l-851.85647503 3e-8c-8.55524009 0-15.77503403-7.35950849-15.77503404-15.88098504L72.13426575 378.19106304l883.40887096 0 0 556.89163774C955.54197276 943.60301113 948.3210149 950.96368467 939.76577479 950.96368467L939.76577479 950.96368467zM188.07709582 491.61552213l145.54270266 0 0 71.62393826L188.07709582 563.23946039 188.07709582 491.61552213 188.07709582 491.61552213zM442.19846314 491.61552213l144.39121579 0 0 71.62393826L442.19846314 563.23946039 442.19846314 491.61552213 442.19846314 491.61552213zM695.16717738 491.61552213l142.07776087 0 0 71.62393826L695.16717738 563.23946039 695.16717738 491.61552213 695.16717738 491.61552213zM188.07709582 637.16637583l145.54270266-2e-8 0 70.45964346L188.07709582 707.62601927 188.07709582 637.16637583 188.07709582 637.16637583zM442.19846314 637.16637583l144.39121579-2e-8 0 70.45964346L442.19846314 707.62601927 442.19846314 637.16637583 442.19846314 637.16637583zM695.16717738 637.16637583l142.07776087-2e-8 0 70.45964346L695.16717738 707.62601927 695.16717738 637.16637583 695.16717738 637.16637583zM188.07709582 779.24646457l145.54270266 0 0 73.92458524L188.07709582 853.17105097 188.07709582 779.24646457 188.07709582 779.24646457zM442.19846314 779.24646457l144.39121579 0 0 73.92458524L442.19846314 853.17105097 442.19846314 779.24646457 442.19846314 779.24646457zM695.16717738 779.24646457l142.07776087 0 0 73.92458524L695.16717738 853.17105097 695.16717738 779.24646457 695.16717738 779.24646457zM695.16717738 779.24646457" p-id="1065"></path></svg>