<?xml version="1.0" standalone="no"?><!DOCTYPE svg PUBLIC "-//W3C//DTD SVG 1.1//EN" "http://www.w3.org/Graphics/SVG/1.1/DTD/svg11.dtd"><svg t="1572942387261" class="icon" viewBox="0 0 1024 1024" version="1.1" xmlns="http://www.w3.org/2000/svg" p-id="1841" xmlns:xlink="http://www.w3.org/1999/xlink" width="200" height="200"><defs><style type="text/css"></style></defs><path d="M908.03041387 124.308304l-45.88450455 0 0-13.63207573c0-40.8645728-33.2795552-74.27511147-73.94546985-74.27511147l-1.09261866 0c-40.6713728 0-73.94546986 33.4094464-73.94546987 74.27511147l0 13.63207573L304.216448 124.308304l0-13.63207573c0-40.8645728-33.27518827-74.27511147-73.94546986-74.27511147l-1.12536427 0c-40.66919039 0-73.94437866 33.4094464-73.94437868 74.27511147l0 13.63207573-45.78626666 0c-40.66919039 0-73.94546986 33.4411008-73.94546986 74.2500064l0 710.08172161c0 40.86348161 33.27518827 74.27511147 73.94546986 74.27511146l798.61544534 0c40.66919039 0 73.94437866-33.41162987 73.94437867-74.27511146l0-710.08172161C981.97479254 157.7494048 948.69960426 124.308304 908.03041387 124.308304L908.03041387 124.308304zM742.73944748 110.6762272c0-24.55934827 19.87451626-44.5626656 44.36728211-44.56266559l1.09261868 0c24.46002027 0 44.36619093 20.00331626 44.36619093 44.56266559L832.5655392 242.79024213c0 24.55934827-19.90617067 44.56375681-44.36619093 44.56375684l-1.09261868 0c-24.49276587 0-44.36728213-20.00440853-44.36728213-44.56375684L742.73944748 110.6762272 742.73944748 110.6762272zM184.77942399 110.6762272c0-24.55934827 19.87451626-44.5626656 44.37274024-44.56266559l1.11881497 0c24.43054823 0 44.36728213 20.00331626 44.3672821 44.56266559L274.63826028 242.79024213c0 24.55934827-19.93782507 44.56375681-44.36728216 44.56375684l-1.11881492 0c-24.49822293 0-44.37274027-20.00440853-44.37274027-44.56375684L184.77942399 110.6762272 184.77942399 110.6762272zM908.03041387 923.52845438l-798.61544534 3e-8c-8.02053758 0-14.7890944-6.89953921-14.78909441-14.88842348L94.62587414 386.5541216l828.19581653 0 0 522.08591038C922.82059947 916.62782293 916.05095147 923.52845438 908.03041387 923.52845438L908.03041387 923.52845438zM203.32227733 492.889552l136.44628375 0 0 67.14744212L203.32227733 560.03699412 203.32227733 492.889552 203.32227733 492.889552zM441.5610592 492.889552l135.3667648 0 0 67.14744212L441.5610592 560.03699412 441.5610592 492.889552 441.5610592 492.889552zM678.7192288 492.889552l133.19790081 0 0 67.14744212L678.7192288 560.03699412 678.7192288 492.889552 678.7192288 492.889552zM203.32227733 629.34347734l136.44628375-2e-8 0 66.05591575L203.32227733 695.39939307 203.32227733 629.34347734 203.32227733 629.34347734zM441.5610592 629.34347734l135.3667648-2e-8 0 66.05591575L441.5610592 695.39939307 441.5610592 629.34347734 441.5610592 629.34347734zM678.7192288 629.34347734l133.19790081-2e-8 0 66.05591575L678.7192288 695.39939307 678.7192288 629.34347734 678.7192288 629.34347734zM203.32227733 762.54356053l136.44628375 0 0 69.30429867L203.32227733 831.84786028 203.32227733 762.54356053 203.32227733 762.54356053zM441.5610592 762.54356053l135.3667648 0 0 69.30429867L441.5610592 831.84786028 441.5610592 762.54356053 441.5610592 762.54356053zM678.7192288 762.54356053l133.19790081 0 0 69.30429867L678.7192288 831.84786028 678.7192288 762.54356053 678.7192288 762.54356053zM678.7192288 762.54356053" p-id="1842"></path></svg>