<?xml version="1.0" standalone="no"?><!DOCTYPE svg PUBLIC "-//W3C//DTD SVG 1.1//EN" "http://www.w3.org/Graphics/SVG/1.1/DTD/svg11.dtd"><svg t="1572942384052" class="icon" viewBox="0 0 1024 1024" version="1.1" xmlns="http://www.w3.org/2000/svg" p-id="1724" xmlns:xlink="http://www.w3.org/1999/xlink" width="200" height="200"><defs><style type="text/css"></style></defs><path d="M512 876.08888853C310.84088853 876.08888853 147.91111147 713.15911147 147.91111147 512 147.91111147 310.84088853 310.84088853 147.91111147 512 147.91111147 713.15911147 147.91111147 876.08888853 310.84088853 876.08888853 512 876.08888853 713.15911147 713.15911147 876.08888853 512 876.08888853M512 56.88888853C260.77866667 56.88888853 56.88888853 260.77866667 56.88888853 512 56.88888853 763.22133333 260.77866667 967.11111147 512 967.11111147 763.22133333 967.11111147 967.11111147 763.22133333 967.11111147 512 967.11111147 260.77866667 763.22133333 56.88888853 512 56.88888853M704.96711146 319.03288854C651.71911147 265.32977813 581.632 238.93333333 512 238.93333333L512 512 319.03288854 704.96711146C425.52888853 811.46311147 598.47111147 811.46311147 704.96711146 704.96711146 811.91822187 598.47111147 811.91822187 425.52888853 704.96711146 319.03288854Z" p-id="1725"></path></svg>