<?xml version="1.0" standalone="no"?><!DOCTYPE svg PUBLIC "-//W3C//DTD SVG 1.1//EN" "http://www.w3.org/Graphics/SVG/1.1/DTD/svg11.dtd"><svg t="1609825817828" class="icon" viewBox="0 0 1024 1024" version="1.1" xmlns="http://www.w3.org/2000/svg" p-id="935" xmlns:xlink="http://www.w3.org/1999/xlink" width="200" height="200"><defs><style type="text/css"></style></defs><path d="M512 919.1499842C287.04963311 919.1499842 104.8500158 736.95036689 104.8500158 512 104.8500158 287.04963311 287.04963311 104.8500158 512 104.8500158 736.95036689 104.8500158 919.1499842 287.04963311 919.1499842 512 919.1499842 736.95036689 736.95036689 919.1499842 512 919.1499842M512 3.06251884C231.06651063 3.06251884 3.06251884 231.06651063 3.06251884 512 3.06251884 792.93348937 231.06651063 1020.93748116 512 1020.93748116 792.93348937 1020.93748116 1020.93748116 792.93348937 1020.93748116 512 1020.93748116 231.06651063 792.93348937 3.06251884 512 3.06251884M727.78949223 296.21050777C668.24380699 236.15588582 589.86743455 206.63751155 512 206.63751155L512 512 296.21050777 727.78949223C415.30187826 846.88086274 608.69812174 846.88086274 727.78949223 727.78949223 847.38979943 608.69812174 847.38979943 415.30187826 727.78949223 296.21050777Z" p-id="936"></path></svg>