<?xml version="1.0" standalone="no"?><!DOCTYPE svg PUBLIC "-//W3C//DTD SVG 1.1//EN" "http://www.w3.org/Graphics/SVG/1.1/DTD/svg11.dtd"><svg t="1609826465294" class="icon" viewBox="0 0 1024 1024" version="1.1" xmlns="http://www.w3.org/2000/svg" p-id="963" xmlns:xlink="http://www.w3.org/1999/xlink" width="200" height="200"><defs><style type="text/css"></style></defs><path d="M86.68961064 721.08399359h157.91752288l-47.11681052 234.01569856c-1.03820496 5.16893259-1.54626195 11.39815989-1.54626192 16.56709248 0 25.35869568 17.58320763 39.34132126 41.92578813 39.34132127 24.85063871 0 42.96399191-13.4745686 48.15501428-38.83326429l50.7173914-251.09084802h244.88371045L534.53124582 955.09969215c-1.54626195 5.16893259-2.05431889 11.39815989-2.05432012 16.56709248 0 25.35869568 17.60529623 39.34132126 42.45593494 39.34132127s42.96399191-13.4745686 48.15501429-38.83326429L673.25302972 721.08399359h184.82248051c28.47330936 0 48.15501427-20.69782008 48.15501427-48.66307246 0-22.77422878-15.52888753-41.41772998-38.83326428-41.41772997h-175.52281911L746.8109193 357.64617133h181.19980866c28.49539794 0 48.15501427-20.7199099 48.15501428-48.66307245 0-22.77422878-15.52888753-41.41772998-38.83326309-41.41773h-172.40820542l42.4559337-208.65700282c0.50805695-3.09252386 1.54626195-9.82980816 1.54626195-16.56709249 0-25.35869568-18.11335442-39.84937944-42.96399191-39.84937947-28.98136633 0-41.92578818 16.0369457-47.11680934 40.37952623l-45.54845879 224.69394855H428.39140787l42.45593495-208.65700282c0.50805695-3.09252386 1.54626195-9.82980816 1.54626191-16.56709249 0-25.35869568-18.64350117-39.84937944-42.9639919-39.84937947-29.5115131 0-42.98608172 16.0369457-47.64695733 40.37952623l-45.54845879 224.69394855h-169.82373855c-28.47330936 0-48.15501427 21.73602502-48.15501429 50.20933324 0 23.3043768 15.55097732 39.87146804 38.85535289 39.87146921h161.01004677l-54.89229864 273.35701983h-167.21718303c-28.49539794 0-48.15501427 21.73602502-48.15501551 50.2093332 0 23.3043768 15.52888753 39.87146804 38.83326429 39.87146923z m268.16599867-90.08080243l55.42244535-273.35701983H655.13967653l-55.37826697 273.35701983z" p-id="964"></path></svg>