<?xml version="1.0" standalone="no"?><!DOCTYPE svg PUBLIC "-//W3C//DTD SVG 1.1//EN" "http://www.w3.org/Graphics/SVG/1.1/DTD/svg11.dtd"><svg t="1609827172477" class="icon" viewBox="0 0 1024 1024" version="1.1" xmlns="http://www.w3.org/2000/svg" p-id="933" xmlns:xlink="http://www.w3.org/1999/xlink" width="200" height="200"><defs><style type="text/css"></style></defs><path d="M487.17040769 152.11700523v273.12551208q0 40.34808675-15.71247611 77.0105319T428.97605187 565.68489729t-63.43184876 42.48188038T288.53367188 623.87925379h-24.82959231q-10.08702186 0-17.45830641-7.37128524t-7.37128522-17.45830707v-49.65918396q0-10.08702186 7.37128522-17.45830709t17.45830641-7.37128523h24.82959232q41.12401208 0 70.22118964-29.09717756t29.09717826-70.22119033v-12.41479582q0-15.51849511-10.86294652-26.38144163t-26.38144161-10.8629465H263.70407957q-31.03699023 0-52.76288257-21.72589302T189.21530398 301.09455709V152.11700523q0-31.03699023 21.72589302-52.76288323t52.76288258-21.72589302h148.97755253q31.03699023 0 52.76288256 21.72589303t21.72589302 52.76288323z m347.61428833 1e-8v273.12551207q0 40.34808675-15.71247611 77.0105319T776.59034019 565.68489729t-63.43184876 42.48188038T636.14796021 623.87925379h-24.82959232q-10.08702186 0-17.4583064-7.37128524t-7.37128523-17.45830707v-49.65918396q0-10.08702186 7.37128523-17.45830709t17.45830641-7.37128523h24.82959231q41.12401208 0 70.22118966-29.09717756t29.09717824-70.22119033v-12.41479582q0-15.51849511-10.8629465-26.38144163t-26.38144162-10.8629465h-86.90357209q-31.03699023 0-52.76288257-21.72589302t-21.72589302-52.76288325V152.11700523q0-31.03699023 21.72589302-52.76288323t52.76288257-21.72589302h148.97755253q31.03699023 0 52.76288256 21.72589303t21.72589303 52.76288323z" p-id="934"></path></svg>