<?xml version="1.0" standalone="no"?><!DOCTYPE svg PUBLIC "-//W3C//DTD SVG 1.1//EN" "http://www.w3.org/Graphics/SVG/1.1/DTD/svg11.dtd"><svg t="1609827176644" class="icon" viewBox="0 0 1024 1024" version="1.1" xmlns="http://www.w3.org/2000/svg" p-id="1063" xmlns:xlink="http://www.w3.org/1999/xlink" width="200" height="200"><defs><style type="text/css"></style></defs><path d="M484.06050158 400.41602907l0 148.97444845q0 31.04630113-21.72589303 52.77219415t-52.77219414 21.72589302l-148.97444844 0q-31.04630113 0-52.77219415-21.72589302t-21.72589303-52.77219415l0-273.11620116q0-40.34498334 15.70782067-77.01829076t42.47412084-63.43960762 63.43960763-42.47412085 77.01829075-15.70782065l24.83269573 0q10.08081436 0 17.46761799 7.36507773t7.36507773 17.46761798l0 49.66539144q0 10.08081436-7.36507773 17.46761799t-17.46761799 7.36507775l-24.83269572 0q-41.12711549 0-70.21808624 29.09097075t-29.09097077 70.21808624l0 12.40548491q0 15.51228762 10.86294652 26.37523413t26.37523413 10.86294652l86.90357208 0q31.04630113 0 52.77219415 21.72589301t21.72589303 52.77219414zM831.67478991 400.41602907l0 148.97444845q0 31.04630113-21.72589303 52.77219415t-52.77219414 21.72589302l-148.97444844 0q-31.04630113 0-52.77219415-21.72589302t-21.72589302-52.77219415l0-273.11620116q0-40.34498334 15.70782066-77.01829076t42.47412084-63.43960762 63.43960763-42.47412085 77.01829074-15.70782065l24.83269574 0q10.08081436 0 17.46761799 7.36507773t7.36507773 17.46761798l0 49.66539144q0 10.08081436-7.36507773 17.46761799t-17.46761799 7.36507775l-24.83269573 0q-41.12711549 0-70.21808623 29.09097075t-29.09097077 70.21808624l0 12.40548491q0 15.51228762 10.86294651 26.37523413t26.37523414 10.86294652l86.90357208 0q31.04630113 0 52.77219415 21.72589301t21.72589302 52.77219414z" p-id="1064"></path></svg>