<?xml version="1.0" standalone="no"?><!DOCTYPE svg PUBLIC "-//W3C//DTD SVG 1.1//EN" "http://www.w3.org/Graphics/SVG/1.1/DTD/svg11.dtd"><svg t="1572942255734" class="icon" viewBox="0 0 1024 1024" version="1.1" xmlns="http://www.w3.org/2000/svg" p-id="1021" xmlns:xlink="http://www.w3.org/1999/xlink" width="200" height="200"><defs><style type="text/css"></style></defs><path d="M483.74944164 279.07831111v310.75613819q0 45.90715648-17.87730615 87.62087184T417.53719679 749.6266683t-72.17134792 48.33493946T257.74497778 815.83891391h-28.25055836q-11.47678931 0-19.86367307-8.38688453t-8.38688452-19.86367383v-56.50111597q0-11.47678931 8.38688452-19.86367384t19.86367307-8.38688453h28.25055837q46.78998708 0 79.89610911-33.10612203t33.10612282-79.89610988v-14.1252788q0-17.65659888-12.35961915-30.01621803t-30.01621802-12.35961914H229.49441942q-35.31319777 0-60.03243528-24.71923828T144.74274587 448.581659V279.07831111q0-35.31319777 24.71923827-60.03243604t60.03243529-24.71923827h169.50334866q35.31319777 0 60.03243527 24.71923828t24.71923828 60.03243604z m395.50781249 1e-8v310.75613818q0 45.90715648-17.87730614 87.62087184T813.04500928 749.6266683t-72.17134791 48.33493946T653.25279028 815.83891391h-28.25055837q-11.47678931 0-19.86367306-8.38688453t-8.38688452-19.86367383v-56.50111597q0-11.47678931 8.38688452-19.86367384t19.86367308-8.38688453h28.25055835q46.78998708 0 79.89610912-33.10612203t33.10612281-79.89610988v-14.1252788q0-17.65659888-12.35961914-30.01621803t-30.01621801-12.35961914h-98.87695313q-35.31319777 0-60.03243529-24.71923828t-24.71923828-60.03243605V279.07831111q0-35.31319777 24.71923828-60.03243604t60.03243529-24.71923827h169.50334865q35.31319777 0 60.03243527 24.71923828t24.71923828 60.03243604z" p-id="1022"></path></svg>