<?xml version="1.0" standalone="no"?><!DOCTYPE svg PUBLIC "-//W3C//DTD SVG 1.1//EN" "http://www.w3.org/Graphics/SVG/1.1/DTD/svg11.dtd"><svg t="1572942306118" class="icon" viewBox="0 0 1024 1024" version="1.1" xmlns="http://www.w3.org/2000/svg" p-id="1138" xmlns:xlink="http://www.w3.org/1999/xlink" width="200" height="200"><defs><style type="text/css"></style></defs><path d="M480.21105957 561.58742268l0 169.4998169q0 35.32379151-24.71923829 60.04302979t-60.04302977 24.71923828l-169.4998169 0q-35.32379151 0-60.04302979-24.71923828t-24.71923828-60.04302979l0-310.74554443q0-45.90362549 17.87200929-87.62969971t48.32611083-72.18017578 72.18017578-48.32611084 87.6296997-17.87200927l28.25408937 0q11.46972656 0 19.87426757 8.37982177t8.37982178 19.87426758l0 56.5081787q0 11.46972656-8.37982178 19.87426758t-19.87426757 8.37982179l-28.25408936 0q-46.79351807 0-79.89257812 33.09906005t-33.09906007 79.89257813l0 14.11468505q0 17.64953614 12.35961914 30.00915528t30.00915528 12.35961914l98.87695313 0q35.32379151 0 60.04302978 24.71923828t24.71923829 60.04302978zM875.71887207 561.58742268l0 169.4998169q0 35.32379151-24.71923829 60.04302979t-60.04302977 24.71923828l-169.4998169 0q-35.32379151 0-60.04302979-24.71923828t-24.71923828-60.04302979l0-310.74554443q0-45.90362549 17.87200929-87.62969971t48.32611083-72.18017578 72.18017578-48.32611084 87.6296997-17.87200927l28.25408937 0q11.46972656 0 19.87426757 8.37982177t8.37982178 19.87426758l0 56.5081787q0 11.46972656-8.37982178 19.87426758t-19.87426757 8.37982179l-28.25408936 0q-46.79351807 0-79.89257812 33.09906005t-33.09906007 79.89257813l0 14.11468505q0 17.64953614 12.35961914 30.00915528t30.00915528 12.35961914l98.87695313 0q35.32379151 0 60.04302978 24.71923828t24.71923829 60.04302978z" p-id="1139"></path></svg>