<?xml version="1.0" standalone="no"?><!DOCTYPE svg PUBLIC "-//W3C//DTD SVG 1.1//EN" "http://www.w3.org/Graphics/SVG/1.1/DTD/svg11.dtd"><svg t="1572942316123" class="icon" viewBox="0 0 1024 1024" version="1.1" xmlns="http://www.w3.org/2000/svg" p-id="1373" xmlns:xlink="http://www.w3.org/1999/xlink" width="200" height="200"><defs><style type="text/css"></style></defs><path d="M314.35294157 54.75555555l0 225.8823525 677.64705843 0 0-225.8823525-677.64705843 0zM935.52941187 224.16731993l-564.70588218 0 0-112.94117626 564.70588218 0 0 112.94117626zM314.35294157 619.46143773l677.64705843 0 0-225.88235249-677.64705843 0 0 225.88235254zM370.82352969 450.04967338l564.70588219 0 0 112.94117623-564.70588219 0 0-112.94117623zM314.35294157 958.28496742l677.64705843 1e-8 0-225.8823525-677.64705843 0 0 225.8823525zM370.82352969 788.87320305l564.70588219 0 0 112.94117628-564.70588219 0 0-112.94117628zM32 280.63790805l225.8823525 0 0-225.8823525-225.8823525 0 0 225.8823525zM88.47058813 111.22614368l112.94117625-1e-8 0 112.94117627-112.94117626-1e-8 1e-8-112.94117626zM32 619.46143773l225.8823525 0 0-225.88235249-225.8823525 0 0 225.88235254zM88.47058813 450.04967338l112.94117625 0 0 112.94117623-112.94117626 0 1e-8-112.94117623zM32 958.28496742l225.8823525 1e-8 0-225.8823525-225.8823525 0 0 225.8823525zM88.47058813 788.87320305l112.94117625 0 0 112.94117628-112.94117626 0 1e-8-112.94117628z" p-id="1374"></path></svg>