<?xml version="1.0" standalone="no"?><!DOCTYPE svg PUBLIC "-//W3C//DTD SVG 1.1//EN" "http://www.w3.org/Graphics/SVG/1.1/DTD/svg11.dtd"><svg t="1572942321361" class="icon" viewBox="0 0 1024 1024" version="1.1" xmlns="http://www.w3.org/2000/svg" p-id="1490" xmlns:xlink="http://www.w3.org/1999/xlink" width="200" height="200"><defs><style type="text/css"></style></defs><path d="M32 54.75555555l0 225.8823525 960 0 0-225.8823525-960 0zM935.52941187 224.16731993l-847.05882374 0 0-112.94117626 847.05882375 0 0 112.94117626zM32 619.46143773l960 0 0-225.88235249-960 0 0 225.88235254zM88.47058813 450.04967338l847.05882374 0 0 112.94117623-847.05882375 0 0-112.94117623zM32 958.28496742l960 1e-8 0-225.8823525-960 0 0 225.8823525zM88.47058813 788.87320305l847.05882374 0 0 112.94117628-847.05882375 0 0-112.94117628z" p-id="1491"></path></svg>