<?xml version="1.0" standalone="no"?><!DOCTYPE svg PUBLIC "-//W3C//DTD SVG 1.1//EN" "http://www.w3.org/Graphics/SVG/1.1/DTD/svg11.dtd"><svg t="1609825059351" class="icon" viewBox="0 0 1024 1024" version="1.1" xmlns="http://www.w3.org/2000/svg" p-id="935" xmlns:xlink="http://www.w3.org/1999/xlink" width="200" height="200"><defs><style type="text/css"></style></defs><path d="M301.17647101 24.27259259l0 240.941176 722.82352899 0 0-240.941176-722.82352899 0zM963.76470599 204.97847459l-602.35294099 0 0-120.47058801 602.35294099 0 0 120.47058801zM301.17647101 626.62553358l722.82352899 0 0-240.94117599-722.82352899 0 0 240.94117604zM361.411765 445.91965161l602.35294101 0 0 120.47058797-602.35294101 0 0-120.47058797zM301.17647101 988.03729858l722.82352899 1e-8 0-240.941176-722.82352899 0 0 240.941176zM361.411765 807.33141659l602.35294101 0 0 120.47058803-602.35294101 0 0-120.47058803zM0 265.21376859l240.941176 0 0-240.941176-240.941176 0 0 240.941176zM60.23529401 84.50788659l120.470588-1e-8 0 120.47058802-120.47058802-1e-8 2e-8-120.47058801zM0 626.62553358l240.941176 0 0-240.94117599-240.941176 0 0 240.94117604zM60.23529401 445.91965161l120.470588 0 0 120.47058797-120.47058802 0 2e-8-120.47058797zM0 988.03729858l240.941176 1e-8 0-240.941176-240.941176 0 0 240.941176zM60.23529401 807.33141659l120.470588 0 0 120.47058803-120.47058802 0 2e-8-120.47058803z" p-id="936"></path></svg>