<?xml version="1.0" standalone="no"?><!DOCTYPE svg PUBLIC "-//W3C//DTD SVG 1.1//EN" "http://www.w3.org/Graphics/SVG/1.1/DTD/svg11.dtd"><svg t="1609825108854" class="icon" viewBox="0 0 1024 1024" version="1.1" xmlns="http://www.w3.org/2000/svg" p-id="1194" xmlns:xlink="http://www.w3.org/1999/xlink" width="200" height="200"><defs><style type="text/css"></style></defs><path d="M0 24.27259259l0 240.941176 1024 0 0-240.941176-1024 0zM963.76470599 204.97847459l-903.52941198 0 0-120.47058801 903.529412 0 0 120.47058801zM0 626.62553358l1024 0 0-240.94117599-1024 0 0 240.94117604zM60.23529401 445.91965161l903.52941198 0 0 120.47058797-903.529412 0 0-120.47058797zM0 988.03729858l1024 1e-8 0-240.941176-1024 0 0 240.941176zM60.23529401 807.33141659l903.52941198 0 0 120.47058803-903.529412 0 0-120.47058803z" p-id="1195"></path></svg>