<?xml version="1.0" standalone="no"?><!DOCTYPE svg PUBLIC "-//W3C//DTD SVG 1.1//EN" "http://www.w3.org/Graphics/SVG/1.1/DTD/svg11.dtd"><svg t="1572942310758" class="icon" viewBox="0 0 1024 1024" version="1.1" xmlns="http://www.w3.org/2000/svg" p-id="1255" xmlns:xlink="http://www.w3.org/1999/xlink" width="200" height="200"><defs><style type="text/css"></style></defs><path d="M905.846154 78.769231H118.153846a118.153846 118.153846 0 0 0-118.153846 118.153846v630.153846c0 65.220923 52.932923 118.153846 118.153846 118.153846h787.692308c65.220923 0 118.153846-52.932923 118.153846-118.153846V196.923077a118.153846 118.153846 0 0 0-118.153846-118.153846z m39.384615 748.307692c0 21.700923-17.683692 39.384615-39.384615 39.384615H118.153846c-21.700923 0-39.384615-17.683692-39.384615-39.384615V275.692308h866.461538v551.384615z" fill="#333333" p-id="1256"></path><path d="M764.140308 559.852308c0 40.526769-4.923077 75.854769-14.729846 105.984-5.789538 17.841231-18.274462 45.686154-36.824616 82.471384h45.922462c21.504-34.264615 36.352-61.164308 43.677538-79.714461 13.193846-32.531692 19.771077-69.553231 19.771077-111.025231 0-15.832615-1.417846-32.295385-4.292923-49.427692a268.288 268.288 0 0 0-14.414769-51.908923 251.667692 251.667692 0 0 0-14.808616-33.35877 1216.630154 1216.630154 0 0 0-17.565538-28.987077h-47.497846c10.870154 22.252308 18.983385 40.763077 23.748923 54.784 11.342769 33.595077 17.014154 70.695385 17.014154 111.18277zM258.481231 559.852308c0 40.526769 4.923077 75.854769 14.729846 105.984 5.789538 17.841231 18.235077 45.686154 36.785231 82.471384H264.073846c-21.504-34.264615-36.352-61.164308-43.677538-79.714461-13.193846-32.531692-19.771077-69.553231-19.771077-111.025231 0-15.832615 1.417846-32.295385 4.292923-49.427692 2.875077-17.092923 7.68-34.422154 14.414769-51.908923a251.667692 251.667692 0 0 1 14.808615-33.35877c2.756923-4.804923 8.822154-14.887385 17.604924-29.026461h47.497846a503.138462 503.138462 0 0 0-23.748923 54.784c-11.342769 33.634462-17.014154 70.734769-17.014154 111.222154zM670.72 476.081231c0 14.887385-4.726154 26.742154-14.217846 35.524923s-21.070769 13.193846-34.737231 13.193846c-8.192 0-16.265846-1.024-24.221538-3.072a258.363077 258.363077 0 0 1-20.637539-6.144 74.24 74.24 0 0 0-12.012308 12.327385c-5.316923 6.340923-11.264 14.020923-17.959384 23.079384 6.104615 26.190769 11.067077 44.780308 14.848 55.808 3.741538 10.988308 7.325538 22.173538 10.712615 33.476923 2.914462 8.979692 7.207385 16.029538 12.8 21.110154 5.671385 5.080615 14.532923 7.601231 26.702769 7.601231 4.450462 0 10.003692-0.827077 16.659693-2.56 6.695385-1.693538 12.169846-3.426462 16.423384-5.12l-5.671384 23.197538c-16.935385 7.246769-31.704615 12.484923-44.307693 15.714462a135.089231 135.089231 0 0 1-33.831384 4.923077c-7.207385 0-14.257231-0.708923-21.307077-2.048a56.635077 56.635077 0 0 1-19.180308-7.443692 58.013538 58.013538 0 0 1-16.029538-14.060308 75.145846 75.145846 0 0 1-11.145846-23.630769 200.861538 200.861538 0 0 1-5.671385-21.543385 356.470154 356.470154 0 0 0-5.198769-21.307077c-4.962462 7.404308-8.546462 12.839385-10.752 16.423385-2.244923 3.623385-5.474462 8.664615-9.728 15.163077-13.508923 20.676923-25.245538 35.406769-35.170462 44.228923s-21.819077 13.193846-35.643077 13.193846c-10.436923 0-19.298462-3.505231-26.663384-10.515692s-11.027692-16.147692-11.027693-27.411693c0-15.241846 4.726154-27.214769 14.217847-36.076307 9.531077-8.782769 21.110154-13.193846 34.855384-13.193847 8.192 0 16.068923 0.984615 23.630769 2.953847s14.651077 4.135385 21.307077 6.537846a122.092308 122.092308 0 0 0 11.972923-12.091077c5.395692-5.947077 11.224615-13.390769 17.565539-22.291693a1024.315077 1024.315077 0 0 0-13.942154-51.790769 2743.020308 2743.020308 0 0 0-11.106462-34.619077 46.552615 46.552615 0 0 0-13.351384-21.188923c-5.789538-5.041231-14.532923-7.522462-26.151385-7.522461-5.159385 0-10.870154 0.905846-17.211077 2.678154a251.155692 251.155692 0 0 0-15.872 5.001846l5.632-23.197539c15.399385-6.892308 29.932308-12.091077 43.677539-15.517538 13.784615-3.465846 25.284923-5.159385 34.500923-5.159385 8.388923 0 15.556923 0.630154 21.543384 1.811692 5.947077 1.181538 12.288 3.741538 18.904616 7.68 6.144 3.741538 11.500308 8.507077 16.029538 14.217847s8.270769 13.548308 11.145846 23.47323c2.126769 6.852923 4.017231 13.942154 5.750154 21.267693l4.411077 18.983384 11.145846-16.935384c3.820308-5.828923 7.128615-10.948923 9.846154-15.399385 13.193846-20.676923 24.969846-35.524923 35.406769-44.504615a52.381538 52.381538 0 0 1 35.328-13.469539c10.752 0 19.731692 3.544615 26.939077 10.633846a37.139692 37.139692 0 0 1 10.791385 27.608616z" fill="#333333" p-id="1257"></path></svg>