<?xml version="1.0" standalone="no"?><!DOCTYPE svg PUBLIC "-//W3C//DTD SVG 1.1//EN" "http://www.w3.org/Graphics/SVG/1.1/DTD/svg11.dtd"><svg t="1609825154230" class="icon" viewBox="0 0 1024 1024" version="1.1" xmlns="http://www.w3.org/2000/svg" p-id="935" xmlns:xlink="http://www.w3.org/1999/xlink" width="200" height="200"><defs><style type="text/css"></style></defs><path d="M905.84615401 78.769231H118.15384599a118.15384601 118.15384601 0 0 0-118.15384599 118.153846v630.153846c0 65.220923 52.932923 118.15384601 118.15384601 118.153846h787.692308c65.220923 0 118.15384601-52.932923 118.15384599-118.153846V196.923077a118.15384601 118.15384601 0 0 0-118.15384599-118.153846z m39.38461499 748.307692c0 21.700923-17.683692 39.38461499-39.38461501 39.38461499H118.15384599c-21.700923 0-39.38461499-17.683692-39.38461499-39.38461499V275.692308h866.461538v551.384615z" p-id="936"></path><path d="M764.140308 559.852308c0 40.526769-4.923077 75.854769-14.72984599 105.984-5.78953801 17.841231-18.27446201 45.68615401-36.82461602 82.471384h45.92246201c21.504-34.26461501 36.352-61.164308 43.67753799-79.714461 13.19384601-32.531692 19.771077-69.553231 19.77107701-111.025231 0-15.83261501-1.41784599-32.29538499-4.292923-49.427692a268.288 268.288 0 0 0-14.414769-51.90892301 251.667692 251.667692 0 0 0-14.80861599-33.35877 1216.63015401 1216.63015401 0 0 0-17.56553801-28.987077h-47.497846c10.87015399 22.252308 18.98338501 40.763077 23.74892299 54.78400002 11.342769 33.595077 17.01415401 70.69538501 17.01415401 111.18276999zM258.481231 559.852308c0 40.526769 4.923077 75.854769 14.729846 105.984 5.78953801 17.841231 18.235077 45.68615401 36.785231 82.471384H264.07384599c-21.504-34.26461501-36.352-61.164308-43.67753799-79.714461-13.19384601-32.531692-19.771077-69.553231-19.771077-111.025231 0-15.83261501 1.41784599-32.29538499 4.29292299-49.427692 2.875077-17.092923 7.68-34.42215401 14.41476901-51.90892301a251.667692 251.667692 0 0 1 14.80861499-33.35877c2.756923-4.804923 8.82215399-14.88738501 17.604924-29.026461h47.49784601a503.13846201 503.13846201 0 0 0-23.74892299 54.784c-11.342769 33.63446201-17.01415401 70.734769-17.01415401 111.22215401zM670.72 476.081231c0 14.88738501-4.72615401 26.74215399-14.21784599 35.52492301s-21.070769 13.19384601-34.73723101 13.19384599c-8.192 0-16.26584599-1.024-24.22153801-3.072a258.363077 258.363077 0 0 1-20.63753898-6.144 74.24 74.24 0 0 0-12.012308 12.32738501c-5.316923 6.340923-11.264 14.020923-17.959384 23.07938399 6.10461501 26.190769 11.067077 44.780308 14.848 55.808 3.74153799 10.988308 7.32553801 22.17353801 10.71261499 33.476923 2.91446199 8.979692 7.20738499 16.02953799 12.8 21.11015401 5.67138501 5.08061499 14.532923 7.601231 26.70276901 7.60123099 4.45046199 0 10.003692-0.827077 16.65969299-2.56 6.69538499-1.69353799 12.16984599-3.42646199 16.42338399-5.12l-5.67138399 23.19753801c-16.93538499 7.246769-31.70461501 12.484923-44.30769301 15.71446199a135.089231 135.089231 0 0 1-33.831384 4.92307701c-7.20738499 0-14.257231-0.708923-21.30707699-2.048a56.635077 56.635077 0 0 1-19.180308-7.443692 58.01353799 58.01353799 0 0 1-16.029538-14.060308 75.14584601 75.14584601 0 0 1-11.14584599-23.630769 200.86153799 200.86153799 0 0 1-5.67138501-21.54338501 356.47015401 356.47015401 0 0 0-5.198769-21.307077c-4.96246201 7.404308-8.54646201 12.83938501-10.752 16.423385-2.244923 3.62338501-5.47446199 8.66461499-9.728 15.16307701-13.508923 20.676923-25.24553799 35.406769-35.170462 44.22892299s-21.819077 13.19384601-35.643077 13.19384601c-10.436923 0-19.29846201-3.505231-26.663384-10.515692s-11.027692-16.147692-11.02769301-27.41169301c0-15.24184601 4.72615401-27.214769 14.21784702-36.07630699 9.531077-8.782769 21.11015399-13.19384601 34.855384-13.193847 8.192 0 16.068923 0.98461501 23.630769 2.953847s14.651077 4.13538501 21.30707699 6.53784599a122.092308 122.092308 0 0 0 11.97292301-12.091077c5.395692-5.947077 11.22461501-13.390769 17.565539-22.29169299a1024.315077 1024.315077 0 0 0-13.94215401-51.79076901 2743.020308 2743.020308 0 0 0-11.10646199-34.619077 46.55261499 46.55261499 0 0 0-13.351384-21.188923c-5.78953801-5.041231-14.532923-7.52246199-26.15138501-7.522461-5.15938501 0-10.87015399 0.90584601-17.211077 2.67815401a251.155692 251.155692 0 0 0-15.872 5.00184599l5.632-23.197539c15.39938501-6.892308 29.932308-12.091077 43.677539-15.517538 13.78461501-3.46584601 25.284923-5.15938501 34.50092301-5.15938499 8.388923 0 15.556923 0.63015401 21.543384 1.811692 5.947077 1.18153799 12.288 3.74153799 18.904616 7.68 6.144 3.74153799 11.500308 8.507077 16.02953799 14.217847s8.270769 13.548308 11.14584601 23.47323c2.126769 6.852923 4.017231 13.94215401 5.75015399 21.26769299l4.411077 18.983384 11.14584599-16.935384c3.820308-5.828923 7.12861499-10.948923 9.84615401-15.399385 13.19384601-20.676923 24.96984599-35.524923 35.40676901-44.504615a52.38153801 52.38153801 0 0 1 35.328-13.469539c10.752 0 19.731692 3.54461501 26.93907698 10.63384599a37.139692 37.139692 0 0 1 10.79138501 27.60861601z" p-id="937"></path></svg>